<svg version="1.2" xmlns="http://www.w3.org/2000/svg" viewBox="0 0 640 640" width="640" height="640"><style>.a{fill:#1e40af}</style><path class="a" d="m355.3 80c113 0 204.7 91.7 204.7 204.7 0 11.7-9.4 21.2-21.2 21.2-11.7 0-21.2-9.5-21.2-21.2 0-89.6-72.7-162.3-162.3-162.3-11.7 0-21.2-9.5-21.2-21.2 0-11.8 9.5-21.2 21.2-21.2zm-176.4 29.5c17.4-4.8 35.6 4.1 42.5 20.7l35.7 85.9c6.1 14.5 1.8 31.4-10.4 41.4l-38.9 31.9c28.6 63.2 78.5 114.7 140.5 145.5l34.1-41.7c10-12.2 26.8-16.4 41.5-10.4l85.8 35.8c16.6 6.9 25.5 25.1 20.7 42.5l-1.3 4.8c-15.5 57.1-70.7 105.8-138 91.6-154.4-32.7-275.9-154.2-308.6-308.6-14.2-67.3 34.5-122.5 91.5-138.1l4.8-1.3zm155.2 76.4c0-11.8 9.5-21.2 21.2-21.2 66.3 0 120 53.7 120 120 0 11.7-9.4 21.2-21.2 21.2-11.7 0-21.1-9.5-21.1-21.2 0-42.9-34.8-77.6-77.7-77.6-11.7 0-21.2-9.5-21.2-21.2zm28.3 63.5c15.6 0 28.2 12.6 28.2 28.2 0 15.7-12.6 28.3-28.2 28.3-15.7 0-28.3-12.6-28.3-28.3 0-15.6 12.6-28.2 28.3-28.2z"/></svg>