<svg version="1.2" xmlns="http://www.w3.org/2000/svg" viewBox="0 0 640 640" width="640" height="640"><style>.a{fill:#1e40af}</style><path class="a" d="m575 137c0-40.3-32.7-73-73-73h-365c-40.3 0-73 32.7-73 73v365c0 40.3 32.7 73 73 73h365c40.3 0 73-32.7 73-73zm-103.8 334.2c-21.3 21.3-47.2 28.1-76.4 29.5-30.1 1.8-120.5 1.8-150.6 0-29.2-1.4-55.1-8.2-76.4-29.5-21.3-21.3-28.1-47.2-29.4-76.4-1.7-30.1-1.7-120.5 0-150.6 1.5-29.2 8.1-55.1 29.4-76.4 21.3-21.3 47.3-28.1 76.4-29.4 30.1-1.7 120.5-1.7 150.6 0 29.2 1.5 55.1 8.1 76.4 29.4 21.3 21.3 28.1 47.2 29.4 76.4 1.7 30 1.7 120.2 0 150.5-1.5 29.2-8.1 55.1-29.4 76.4zm-23.2-280.3c-5.9-5.9-13.1-10.6-20.9-13.7-20.7-8-65.7-7.7-94.8-7.4-4.7 0-9 0.1-12.8 0.1-3.8 0-8.2 0-13-0.1-29.1-0.3-73.9-0.8-94.6 7.4-7.8 3.1-14.9 7.8-20.9 13.7-6.1 6-10.7 13.2-13.7 21-8.1 20.7-7.7 65.8-7.4 94.9 0 4.7 0.1 9 0.1 12.7 0 3.6 0 8-0.1 12.6-0.3 29.1-0.7 74.3 7.4 94.9 3 7.9 7.7 15 13.7 21 5.9 6.1 13.1 10.6 20.9 13.7 20.7 8.1 65.7 7.8 94.8 7.4 4.7 0 9-0.1 12.8-0.1 3.8 0 8.2 0 13 0.1 29.1 0.4 73.9 0.8 94.6-7.4 7.8-3.1 14.9-7.7 20.9-13.7 6.1-5.9 10.7-13.1 13.7-21 8.2-20.5 7.8-65.4 7.5-94.6 0-4.8-0.2-9.3-0.2-13 0-3.8 0-8.1 0.2-13 0.3-29.1 0.7-74.1-7.5-94.7-3-7.9-7.7-14.9-13.7-21zm-43.2 49.3c-3.5-2.4-6.4-5.8-8.1-9.8-1.7-4-2-8.4-1.2-12.7 0.8-4.3 2.9-8.1 5.9-11.2 3-3 7-5.1 11.2-5.9 4.2-0.8 8.6-0.5 12.6 1.3 4 1.7 7.5 4.4 9.8 7.9 2.4 3.6 3.7 7.8 3.7 12.1 0 2.9-0.6 5.7-1.6 8.4-1 2.6-2.7 5-4.7 7-1.9 2.1-4.4 3.7-7 4.8-2.7 1.2-5.5 1.7-8.4 1.7-4.3 0-8.5-1.2-12.1-3.6zm-33.3 1.5c20.7 13.8 34.9 35.2 39.8 59.5 4.9 24.3-0.2 49.6-14 70.3-6.8 10.2-15.6 18.9-25.8 25.7-10.1 6.9-21.6 11.6-33.7 14-24.3 4.8-49.7-0.3-70.3-14.1-20.6-13.8-34.9-35.2-39.8-59.5-4.9-24.3 0.2-49.6 13.9-70.3 13.7-20.6 35.3-34.9 59.5-39.8 24.3-4.9 49.7 0.3 70.3 13.9h0.1zm-85.7 27.3c-18.8 11.7-29.6 32.9-28.5 54.9 1.3 22.1 14.5 41.7 34.4 51.4 19.9 9.6 43.6 7.5 61.6-5.2 18.7-11.8 29.5-32.9 28.4-54.9-1.3-22.1-14.5-41.8-34.4-51.4-19.9-9.6-43.5-7.6-61.5 5.2z"/></svg>